<svg width="22" height="23" viewBox="0 0 22 23" fill="none" xmlns="http://www.w3.org/2000/svg">
<path d="M17 1.59998V3.59998M5 1.59998V3.59998" stroke="white" stroke-width="1.5" stroke-linecap="round" stroke-linejoin="round"/>
<path d="M10.9955 12.6H11.0045M10.9955 16.6H11.0045M14.991 12.6H15M7 12.6H7.00897M7 16.6H7.00897" stroke="white" stroke-width="2" stroke-linecap="round" stroke-linejoin="round"/>
<path d="M2.5 7.59998H19.5" stroke="white" stroke-width="1.5" stroke-linecap="round" stroke-linejoin="round"/>
<path d="M1.5 11.8432C1.5 7.48591 1.5 5.30726 2.75212 3.95362C4.00424 2.59998 6.01949 2.59998 10.05 2.59998H11.95C15.9805 2.59998 17.9958 2.59998 19.2479 3.95362C20.5 5.30726 20.5 7.48591 20.5 11.8432V12.3567C20.5 16.714 20.5 18.8927 19.2479 20.2463C17.9958 21.6 15.9805 21.6 11.95 21.6H10.05C6.01949 21.6 4.00424 21.6 2.75212 20.2463C1.5 18.8927 1.5 16.714 1.5 12.3567V11.8432Z" stroke="white" stroke-width="1.5" stroke-linecap="round" stroke-linejoin="round"/>
<path d="M2 7.59998H20" stroke="white" stroke-width="1.5" stroke-linecap="round" stroke-linejoin="round"/>
</svg>
