<svg width="21" height="21" viewBox="0 0 21 21" fill="none" xmlns="http://www.w3.org/2000/svg">
<path d="M1.25 10.6C1.25 6.12166 1.25 3.88249 2.64124 2.49125C4.03249 1.10001 6.27166 1.10001 10.75 1.10001C15.2283 1.10001 17.4675 1.10001 18.8588 2.49125C20.25 3.88249 20.25 6.12166 20.25 10.6C20.25 15.0783 20.25 17.3175 18.8588 18.7088C17.4675 20.1 15.2283 20.1 10.75 20.1C6.27166 20.1 4.03249 20.1 2.64124 18.7088C1.25 17.3175 1.25 15.0783 1.25 10.6Z" stroke="white" stroke-width="1.5"/>
<path d="M6 8.60001L10.3753 12.2275C10.6748 12.4758 10.8246 12.6 11 12.6C11.1754 12.6 11.3252 12.4758 11.6247 12.2275L16 8.60001" stroke="white" stroke-width="1.5" stroke-linecap="round" stroke-linejoin="round"/>
</svg>
