<svg width="22" height="22" viewBox="0 0 22 22" fill="none" xmlns="http://www.w3.org/2000/svg">
<path d="M13.1706 19.9905C17.3536 19.7125 20.6856 16.3332 20.9598 12.0909C21.0134 11.2607 21.0134 10.4009 20.9598 9.57073C20.6856 5.32838 17.3536 1.94914 13.1706 1.67108C11.7435 1.57622 10.2536 1.57641 8.8294 1.67108C4.64639 1.94914 1.31441 5.32838 1.04024 9.57073C0.986587 10.4009 0.986587 11.2607 1.04024 12.0909C1.1401 13.636 1.82343 15.0666 2.62791 16.2746C3.09501 17.1203 2.78674 18.1758 2.30021 19.0978C1.94941 19.7626 1.77401 20.095 1.91484 20.3351C2.05568 20.5752 2.37026 20.5829 2.99943 20.5982C4.24367 20.6285 5.08268 20.2757 5.74868 19.7846C6.1264 19.5061 6.31527 19.3668 6.44544 19.3508C6.5756 19.3348 6.83177 19.4403 7.34401 19.6513C7.8044 19.8409 8.33896 19.9579 8.8294 19.9905C10.2536 20.0852 11.7435 20.0854 13.1706 19.9905Z" stroke="white" stroke-width="1.5" stroke-linejoin="round"/>
<path d="M9.5 8.63847C9.5 7.7888 10.1716 7.10001 11 7.10001C11.8284 7.10001 12.5 7.7888 12.5 8.63847C12.5 8.94474 12.4127 9.23011 12.2623 9.46985C11.8141 10.1844 11 10.8657 11 11.7154V12.1" stroke="white" stroke-width="1.5" stroke-linecap="round"/>
<path d="M11 14.1H11.009" stroke="white" stroke-width="1.5" stroke-linecap="round" stroke-linejoin="round"/>
</svg>
